<svg width="40" height="40" viewBox="0 0 40 40" fill="none" xmlns="http://www.w3.org/2000/svg">
<path d="M11.6579 11.6776C11.007 12.3285 11.007 13.3838 11.6579 14.0346L17.6331 20.0099L11.6579 25.9851C11.007 26.636 11.007 27.6913 11.6579 28.3422C12.3087 28.993 13.364 28.993 14.0149 28.3422L19.9901 22.3669L25.9654 28.3421C26.6162 28.993 27.6715 28.993 28.3224 28.3421C28.9733 27.6913 28.9733 26.636 28.3224 25.9851L22.3472 20.0099L28.3224 14.0347C28.9733 13.3838 28.9733 12.3285 28.3224 11.6776C27.6715 11.0268 26.6162 11.0268 25.9654 11.6776L19.9901 17.6529L14.0149 11.6776C13.364 11.0267 12.3087 11.0267 11.6579 11.6776Z" fill="#4F4F4F"/>
</svg>
