<svg width="17" height="17" viewBox="0 0 17 17" fill="none" xmlns="http://www.w3.org/2000/svg">
<path fill-rule="evenodd" clip-rule="evenodd" d="M6.37516 6.37468H14.8752C15.6576 6.37468 16.2918 5.74041 16.2918 4.95801V2.12467C16.2918 1.34227 15.6576 0.708008 14.8752 0.708008H2.12516C1.34276 0.708008 0.708496 1.34227 0.708496 2.12467V14.8747C0.708496 15.6571 1.34276 16.2913 2.12516 16.2913H4.9585C5.7409 16.2913 6.37516 15.6571 6.37516 14.8747V6.37468ZM4.9585 12.0413V9.91634H4.25016C3.85896 9.91634 3.54183 9.59921 3.54183 9.20801C3.54183 8.81681 3.85896 8.49968 4.25016 8.49968H4.9585V6.37468H4.25016C3.85896 6.37468 3.54183 6.05754 3.54183 5.66634C3.54183 5.27514 3.85896 4.95801 4.25016 4.95801H4.9585V4.24968C4.9585 3.85847 5.27563 3.54134 5.66683 3.54134C6.05803 3.54134 6.37516 3.85847 6.37516 4.24968V4.95801H8.50016V4.24968C8.50016 3.85847 8.8173 3.54134 9.2085 3.54134C9.5997 3.54134 9.91683 3.85847 9.91683 4.24968V4.95801H12.0418V4.24968C12.0418 3.85847 12.359 3.54134 12.7502 3.54134C13.1414 3.54134 13.4585 3.85847 13.4585 4.24968V4.95801H14.1668C14.558 4.95801 14.8752 4.64088 14.8752 4.24968V2.83301C14.8752 2.44181 14.558 2.12467 14.1668 2.12467H2.8335C2.44229 2.12467 2.12516 2.44181 2.12516 2.83301V14.1663C2.12516 14.5575 2.44229 14.8747 2.8335 14.8747H4.25016C4.64137 14.8747 4.9585 14.5575 4.9585 14.1663V13.458H4.25016C3.85896 13.458 3.54183 13.1409 3.54183 12.7497C3.54183 12.3585 3.85896 12.0413 4.25016 12.0413H4.9585Z" fill="#94897C"/>
</svg>
