<svg width="17" height="17" fill="none" xmlns="http://www.w3.org/2000/svg"><path fill-rule="evenodd" clip-rule="evenodd" d="M2.471 4.253c-.514.881-.683 2.104-.367 3.367.113.455.444 1.04.967 1.712.514.66 1.17 1.35 1.863 2.01 1.377 1.313 2.858 2.47 3.566 3.005.708-.535 2.189-1.692 3.565-3.004.694-.662 1.35-1.351 1.863-2.011.524-.673.854-1.257.968-1.712.316-1.263.147-2.486-.367-3.367-.502-.86-1.34-1.42-2.487-1.42-.999 0-1.703.739-2.2 1.734a7.565 7.565 0 00-.614 1.774c-.079.37-.505.388-.728.388-.223 0-.65-.021-.729-.388a7.565 7.565 0 00-.613-1.774c-.498-.995-1.201-1.733-2.2-1.733-1.147 0-1.985.559-2.487 1.42zM8.5 4.087l.075-.153c.565-1.13 1.632-2.517 3.467-2.517 1.685 0 2.973.857 3.71 2.122.726 1.244.911 2.855.518 4.425-.186.744-.662 1.516-1.224 2.238-.572.735-1.281 1.478-2.003 2.166-1.445 1.377-2.988 2.58-3.707 3.122a1.386 1.386 0 01-1.673 0c-.718-.542-2.261-1.745-3.706-3.122-.722-.688-1.431-1.43-2.003-2.166C1.392 9.48.915 8.708.729 7.964c-.392-1.57-.207-3.18.518-4.425.738-1.265 2.026-2.122 3.711-2.122 1.835 0 2.902 1.387 3.467 2.517.026.05.05.102.075.153z" fill="#94897C"/></svg>