<svg width="17" height="17" fill="none" xmlns="http://www.w3.org/2000/svg"><path fill-rule="evenodd" clip-rule="evenodd" d="M6.375 6.375h8.5c.783 0 1.417-.635 1.417-1.417V2.125c0-.783-.634-1.417-1.417-1.417H2.125c-.782 0-1.417.634-1.417 1.417v12.75c0 .782.635 1.416 1.417 1.416h2.833c.783 0 1.417-.634 1.417-1.416v-8.5zM4.958 12.04V9.916H4.25a.708.708 0 110-1.416h.708V6.375H4.25a.708.708 0 010-1.417h.708V4.25a.708.708 0 111.417 0v.708H8.5V4.25a.708.708 0 011.417 0v.708h2.125V4.25a.708.708 0 011.417 0v.708h.708a.708.708 0 00.708-.708V2.833a.708.708 0 00-.708-.708H2.833a.708.708 0 00-.708.708v11.333c0 .391.317.709.708.709H4.25a.708.708 0 00.708-.709v-.708H4.25a.708.708 0 110-1.417h.708z" fill="#94897C"/></svg>