<?xml version="1.0" encoding="UTF-8"?><!DOCTYPE svg PUBLIC "-//W3C//DTD SVG 1.1//EN" "http://www.w3.org/Graphics/SVG/1.1/DTD/svg11.dtd"><svg xmlns="http://www.w3.org/2000/svg" xmlns:xlink="http://www.w3.org/1999/xlink"><symbol id="arrow-left" viewBox="0 0 10 18"><g fill="none">
<path d="M9.68268 0.292123C9.25959 -0.0973741 8.57362 -0.0973745 8.15053 0.292123L0.951957 6.91911C-0.316973 8.08729 -0.31737 9.98116 0.951072 11.1498L8.06933 17.7079C8.49242 18.0974 9.17839 18.0974 9.60148 17.7079C10.0246 17.3184 10.0246 16.6869 9.60148 16.2974L2.48137 9.74262C2.05828 9.35313 2.05828 8.72163 2.48137 8.33213L9.68268 1.70262C10.1058 1.31312 10.1058 0.68162 9.68268 0.292123Z" fill="#4F4F4F"/>
</g></symbol><symbol id="arrow-next" viewBox="0 0 12 4"><g fill="none">
<path d="M8.39994 3.74399C8.55994 3.40266 8.71461 3.10399 8.86394 2.84799C9.02394 2.59199 9.17861 2.37866 9.32794 2.20799H-6.1512e-05V1.53599H9.32794C9.17861 1.35466 9.02394 1.13599 8.86394 0.879994C8.71461 0.623994 8.55994 0.33066 8.39994 -6.19888e-06H8.95994C9.63194 0.778661 10.3359 1.35466 11.0719 1.72799V2.01599C10.3359 2.37866 9.63194 2.95466 8.95994 3.74399H8.39994Z" fill="#161515"/>
</g></symbol><symbol id="arrow-prew" viewBox="0 0 12 4"><g fill="none">
<path d="M2.67233 3.74399C2.51233 3.40266 2.35766 3.10399 2.20833 2.84799C2.04833 2.59199 1.89366 2.37866 1.74433 2.20799H11.0723V1.53599H1.74433C1.89366 1.35466 2.04833 1.13599 2.20833 0.879994C2.35766 0.623994 2.51233 0.33066 2.67233 -6.19888e-06H2.11233C1.44033 0.778661 0.736327 1.35466 0.00032711 1.72799V2.01599C0.736327 2.37866 1.44033 2.95466 2.11233 3.74399H2.67233Z" fill="#161515"/>
</g></symbol><symbol id="arrow-right" viewBox="0 0 10 18"><g fill="none">
<path opacity="0.8" d="M0.317318 17.7079C0.740411 18.0974 1.42638 18.0974 1.84947 17.7079L9.04804 11.0809C10.317 9.91271 10.3174 8.01884 9.04893 6.85022L1.93067 0.292122C1.50758 -0.097374 0.821609 -0.097374 0.398517 0.292122C-0.0245743 0.68162 -0.0245743 1.31312 0.398517 1.70262L7.51863 8.25738C7.94172 8.64687 7.94172 9.27837 7.51863 9.66787L0.317318 16.2974C-0.105774 16.6869 -0.105774 17.3184 0.317318 17.7079Z" fill="#4F4F4F"/>
</g></symbol><symbol id="bag" viewBox="0 0 24 24"><g fill="none">
<path fill-rule="evenodd" clip-rule="evenodd" d="M16.5286 5.99961C16.5099 5.91891 16.4904 5.83803 16.4702 5.75708C16.2062 4.70099 15.7904 3.55344 15.1126 2.64961C14.4136 1.71763 13.3929 0.999611 12.0001 0.999611C10.6072 0.999611 9.58654 1.71763 8.88756 2.64961C8.20969 3.55344 7.79394 4.70099 7.52991 5.75708C7.50968 5.83803 7.49022 5.91891 7.47151 5.99961H5.87116C4.29177 5.99961 2.98287 7.22416 2.87781 8.80005L2.14448 19.8001C2.02904 21.5316 3.40244 22.9996 5.13783 22.9996H18.8623C20.5977 22.9996 21.9711 21.5316 21.8556 19.8001L21.1223 8.80005C21.0172 7.22416 19.7083 5.99961 18.129 5.99961H16.5286ZM8.00006 10.9996C8.57304 10.9996 8.99812 10.568 9.00007 9.99778C9.00022 9.974 9.0005 9.95021 9.0009 9.92643C9.00178 9.87374 9.00357 9.79416 9.00724 9.69155C9.01457 9.48613 9.02936 9.1896 9.05911 8.83266C9.08021 8.57937 9.10865 8.29823 9.1468 7.99961H14.8533C14.8915 8.29823 14.9199 8.57937 14.941 8.83266C14.9708 9.1896 14.9855 9.48613 14.9929 9.69155C14.9965 9.79416 14.9983 9.87374 14.9992 9.92643C14.9996 9.95095 15 9.97548 15.0001 10C15.0001 10 15.0001 10.9996 16.0001 10.9996C17.0001 10.9996 17.0001 9.99827 17.0001 9.99827C17 9.96321 16.9995 9.92815 16.9989 9.8931C16.9979 9.82861 16.9958 9.73631 16.9916 9.62017C16.9833 9.38809 16.9669 9.05962 16.9341 8.66657C16.917 8.46163 16.8954 8.23773 16.868 7.99961H18.129C18.6554 7.99961 19.0917 8.40779 19.1267 8.93309L19.8601 19.9331C19.8986 20.5103 19.4408 20.9996 18.8623 20.9996H5.13783C4.55937 20.9996 4.10157 20.5103 4.14005 19.9331L4.87338 8.93309C4.9084 8.40779 5.3447 7.99961 5.87116 7.99961H7.13214C7.10471 8.23773 7.08309 8.46163 7.06601 8.66657C7.03326 9.05962 7.0168 9.38809 7.00851 9.62017C7.00436 9.73631 7.00225 9.82861 7.00118 9.8931C7.0006 9.92746 7.00017 9.96182 7.00007 9.99619C6.9993 10.5668 7.42839 10.9996 8.00006 10.9996ZM9.53358 5.99961H14.4665C14.2353 5.15283 13.9211 4.39427 13.5126 3.84961C13.0865 3.28159 12.6072 2.99961 12.0001 2.99961C11.3929 2.99961 10.9136 3.28159 10.4876 3.84961C10.0791 4.39427 9.76479 5.15283 9.53358 5.99961Z" fill="#161515"/>
</g></symbol><symbol id="envelope" viewBox="0 0 15 11"><g fill="none">
<path d="M13.4402 11H1.18774C0.500102 11 0 10.4107 0 9.75595V1.24405C0 0.52381 0.562615 0 1.18774 0H13.4402C14.1279 0 14.628 0.589286 14.628 1.24405V9.75595C14.628 10.4762 14.0654 11 13.4402 11ZM1.18774 0.458334C0.812666 0.458334 0.437589 0.785714 0.437589 1.24405V9.75595C0.437589 10.2143 0.750153 10.5417 1.18774 10.5417H13.4402C13.8778 10.5417 14.1904 10.2143 14.1904 9.75595V1.24405C14.1904 0.785714 13.8778 0.458334 13.4402 0.458334H1.18774Z" fill="white"/>
<path d="M7.31411 5.76197C7.2516 5.76197 7.12657 5.69649 7.12657 5.63102C7.06406 5.50006 7.12657 5.36911 7.2516 5.30363L14.3155 1.70244C14.4406 1.63697 14.5656 1.70244 14.6281 1.8334C14.6906 1.96435 14.6281 2.0953 14.5031 2.16078L7.43914 5.76197C7.37663 5.76197 7.37663 5.76197 7.31411 5.76197Z" fill="white"/>
<path d="M7.31401 5.76173C7.2515 5.76173 7.2515 5.76173 7.18899 5.76173L0.187559 1.7022C0.0625334 1.63673 0.0625334 1.50578 0.125046 1.37482C0.187559 1.30935 0.312584 1.24387 0.43761 1.30935L7.43904 5.3034C7.56407 5.36887 7.56406 5.49982 7.56406 5.63078C7.50155 5.69625 7.37653 5.76173 7.31401 5.76173Z" fill="white"/>
</g></symbol><symbol id="facebook" viewBox="0 0 25 25"><g fill="none">
<path d="M12.3437 24.3437C5.76984 24.3437 0.34375 18.9177 0.34375 12.3437C0.34375 5.76984 5.76984 0.34375 12.3437 0.34375C18.9177 0.34375 24.3437 5.76984 24.3437 12.3437C24.3437 18.9177 18.9177 24.3437 12.3437 24.3437Z" stroke="white" stroke-width="0.6875" stroke-miterlimit="10" stroke-linecap="round" stroke-linejoin="round"/>
<path d="M15.652 6.30208C16.1583 6.30208 16.5687 5.89168 16.5687 5.38542C16.5687 4.87916 16.1583 4.46875 15.652 4.46875C15.1458 4.46875 14.7354 4.87916 14.7354 5.38542C14.7354 5.89168 15.1458 6.30208 15.652 6.30208Z" stroke="white" stroke-width="0.6875" stroke-miterlimit="10" stroke-linecap="round" stroke-linejoin="round"/>
<path d="M9.78516 14.7352H11.9852C13.4518 14.7352 14.7352 13.4518 14.7352 11.9852V9.78516C14.7352 8.31849 13.4518 7.03516 11.9852 7.03516H9.78516C8.31849 7.03516 7.03516 8.31849 7.03516 9.78516V11.9852C7.03516 13.5435 8.22682 14.7352 9.78516 14.7352Z" stroke="white" stroke-width="0.6875" stroke-miterlimit="10" stroke-linecap="round" stroke-linejoin="round"/>
</g></symbol><symbol id="favorit" viewBox="0 0 16 15"><g fill="none">
<path fill-rule="evenodd" clip-rule="evenodd" d="M1.94329 2.83607C1.42928 3.71724 1.26011 4.93994 1.57593 6.2032C1.68958 6.6578 2.01998 7.24224 2.5436 7.91491C3.05707 8.57453 3.71245 9.26408 4.40659 9.92569C5.78294 11.2375 7.26414 12.3948 7.97208 12.9299C8.68001 12.3948 10.1612 11.2375 11.5376 9.92569C12.2317 9.26408 12.8871 8.57453 13.4006 7.91491C13.9242 7.24224 14.2546 6.6578 14.3682 6.2032C14.6841 4.93994 14.5149 3.71724 14.0009 2.83608C13.4992 1.976 12.6614 1.41667 11.5137 1.41667C10.5153 1.41667 9.81155 2.15495 9.31397 3.15011C9.07488 3.62828 8.91236 4.11361 8.80952 4.48385C8.75847 4.66762 8.72303 4.81975 8.70066 4.92413C8.62139 5.29403 8.1947 5.3125 7.97208 5.3125C7.74946 5.3125 7.32202 5.29058 7.2435 4.92414C7.22113 4.81975 7.18568 4.66763 7.13463 4.48385C7.03179 4.11361 6.86927 3.62829 6.63018 3.15011C6.1326 2.15495 5.42885 1.41667 4.4304 1.41667C3.28277 1.41667 2.445 1.976 1.94329 2.83607ZM7.97207 2.6705C7.99624 2.6193 8.02116 2.56796 8.04686 2.51656C8.61178 1.38672 9.67888 0 11.5137 0C13.1994 0 14.4867 0.857334 15.2245 2.12226C15.9501 3.36609 16.1351 4.97673 15.7426 6.5468C15.5566 7.29066 15.0805 8.0631 14.5185 8.78511C13.9463 9.52017 13.2369 10.2631 12.515 10.9512C11.0704 12.328 9.52734 13.5307 8.80863 14.0734C8.31231 14.4481 7.63184 14.4481 7.13553 14.0734C6.41681 13.5307 4.87371 12.328 3.42917 10.9512C2.70727 10.2631 1.99789 9.52017 1.4257 8.78511C0.863676 8.0631 0.387527 7.29066 0.20156 6.5468C-0.190957 4.97673 -0.00596137 3.36609 0.719604 2.12226C1.45747 0.857334 2.7447 0 4.4304 0C6.26526 0 7.33236 1.38672 7.89729 2.51656C7.92299 2.56796 7.94791 2.6193 7.97207 2.6705Z" fill="#4F4F4F"/>
</g></symbol><symbol id="heart" viewBox="0 0 24 21"><g fill="none">
<path d="M10.5844 20.4285L10.4672 20.3181L2.25469 12.5045C0.815625 11.1358 0 9.21483 0 7.20261V7.04413C0 3.66322 2.34375 0.762546 5.5875 0.128625C7.43437 -0.23636 9.32344 0.200662 10.8281 1.28601C11.25 1.59337 11.6438 1.94875 12 2.35695C12.1969 2.12644 12.4078 1.91513 12.6328 1.71823C12.8062 1.56455 12.9844 1.42048 13.1719 1.28601C14.6766 0.200662 16.5656 -0.23636 18.4125 0.123823C21.6562 0.757744 24 3.66322 24 7.04413V7.20261C24 9.21483 23.1844 11.1358 21.7453 12.5045L13.5328 20.3181L13.4156 20.4285C13.0313 20.7935 12.525 21 12 21C11.475 21 10.9688 20.7983 10.5844 20.4285ZM11.2078 4.90705C11.1891 4.89264 11.175 4.87343 11.1609 4.85422L10.3266 3.89373L10.3219 3.88893C9.23906 2.6451 7.60312 2.07841 6.00937 2.39057C3.825 2.81799 2.25 4.76778 2.25 7.04413V7.20261C2.25 8.5713 2.80781 9.88237 3.7875 10.814L12 18.6276L20.2125 10.814C20.6973 10.3526 21.084 9.79382 21.3485 9.17245C21.6131 8.55108 21.7497 7.88051 21.75 7.20261V7.04413C21.75 4.77258 20.175 2.81799 17.9953 2.39057C16.4016 2.07841 14.7609 2.6499 13.6828 3.88893L13.6781 3.89373L13.6734 3.89854L12.8391 4.85902C12.825 4.87823 12.8062 4.89264 12.7922 4.91185C12.5812 5.12796 12.2953 5.24802 12 5.24802C11.7047 5.24802 11.4188 5.12796 11.2078 4.91185V4.90705Z" fill="#161515"/>
</g></symbol><symbol id="icon-size" viewBox="0 0 17 17"><g fill="none">
<path fill-rule="evenodd" clip-rule="evenodd" d="M6.37516 6.37468H14.8752C15.6576 6.37468 16.2918 5.74041 16.2918 4.95801V2.12467C16.2918 1.34227 15.6576 0.708008 14.8752 0.708008H2.12516C1.34276 0.708008 0.708496 1.34227 0.708496 2.12467V14.8747C0.708496 15.6571 1.34276 16.2913 2.12516 16.2913H4.9585C5.7409 16.2913 6.37516 15.6571 6.37516 14.8747V6.37468ZM4.9585 12.0413V9.91634H4.25016C3.85896 9.91634 3.54183 9.59921 3.54183 9.20801C3.54183 8.81681 3.85896 8.49968 4.25016 8.49968H4.9585V6.37468H4.25016C3.85896 6.37468 3.54183 6.05754 3.54183 5.66634C3.54183 5.27514 3.85896 4.95801 4.25016 4.95801H4.9585V4.24968C4.9585 3.85847 5.27563 3.54134 5.66683 3.54134C6.05803 3.54134 6.37516 3.85847 6.37516 4.24968V4.95801H8.50016V4.24968C8.50016 3.85847 8.8173 3.54134 9.2085 3.54134C9.5997 3.54134 9.91683 3.85847 9.91683 4.24968V4.95801H12.0418V4.24968C12.0418 3.85847 12.359 3.54134 12.7502 3.54134C13.1414 3.54134 13.4585 3.85847 13.4585 4.24968V4.95801H14.1668C14.558 4.95801 14.8752 4.64088 14.8752 4.24968V2.83301C14.8752 2.44181 14.558 2.12467 14.1668 2.12467H2.8335C2.44229 2.12467 2.12516 2.44181 2.12516 2.83301V14.1663C2.12516 14.5575 2.44229 14.8747 2.8335 14.8747H4.25016C4.64137 14.8747 4.9585 14.5575 4.9585 14.1663V13.458H4.25016C3.85896 13.458 3.54183 13.1409 3.54183 12.7497C3.54183 12.3585 3.85896 12.0413 4.25016 12.0413H4.9585Z" fill="#94897C"/>
</g></symbol><symbol id="instagram" viewBox="0 0 25 25"><g fill="none">
<path d="M12.3437 24.3437C5.76984 24.3437 0.34375 18.9177 0.34375 12.3437C0.34375 5.76984 5.76984 0.34375 12.3437 0.34375C18.9177 0.34375 24.3437 5.76984 24.3437 12.3437C24.3437 18.9177 18.9177 24.3437 12.3437 24.3437Z" stroke="white" stroke-width="0.6875" stroke-miterlimit="10" stroke-linecap="round" stroke-linejoin="round"/>
<path d="M14.8481 6.39551C12.8655 6.39551 11.3003 7.96072 11.3003 9.94333V18.7085" stroke="white" stroke-width="0.6875" stroke-miterlimit="10" stroke-linecap="round" stroke-linejoin="round"/>
<path d="M9.62988 12.5518H14.4299" stroke="white" stroke-width="0.6875" stroke-miterlimit="10" stroke-linecap="round" stroke-linejoin="round"/>
</g></symbol><symbol id="like-white" viewBox="0 0 24 21"><g fill="none">
<path d="M10.5844 20.4285L10.4672 20.3181L2.25469 12.5045C0.815625 11.1358 0 9.21483 0 7.20261V7.04413C0 3.66322 2.34375 0.762546 5.5875 0.128625C7.43437 -0.23636 9.32344 0.200662 10.8281 1.28601C11.25 1.59337 11.6438 1.94875 12 2.35695C12.1969 2.12644 12.4078 1.91513 12.6328 1.71823C12.8062 1.56455 12.9844 1.42048 13.1719 1.28601C14.6766 0.200662 16.5656 -0.23636 18.4125 0.123823C21.6562 0.757744 24 3.66322 24 7.04413V7.20261C24 9.21483 23.1844 11.1358 21.7453 12.5045L13.5328 20.3181L13.4156 20.4285C13.0313 20.7935 12.525 21 12 21C11.475 21 10.9688 20.7983 10.5844 20.4285ZM11.2078 4.90705C11.1891 4.89264 11.175 4.87343 11.1609 4.85422L10.3266 3.89373L10.3219 3.88893C9.23906 2.6451 7.60312 2.07841 6.00937 2.39057C3.825 2.81799 2.25 4.76778 2.25 7.04413V7.20261C2.25 8.5713 2.80781 9.88237 3.7875 10.814L12 18.6276L20.2125 10.814C20.6973 10.3526 21.084 9.79382 21.3485 9.17245C21.6131 8.55108 21.7497 7.88051 21.75 7.20261V7.04413C21.75 4.77258 20.175 2.81799 17.9953 2.39057C16.4016 2.07841 14.7609 2.6499 13.6828 3.88893L13.6781 3.89373L13.6734 3.89854L12.8391 4.85902C12.825 4.87823 12.8062 4.89264 12.7922 4.91185C12.5812 5.12796 12.2953 5.24802 12 5.24802C11.7047 5.24802 11.4188 5.12796 11.2078 4.91185V4.90705Z" fill="#CDCDCD"/>
</g></symbol><symbol id="user" viewBox="0 0 24 24"><g fill="none">
<path fill-rule="evenodd" clip-rule="evenodd" d="M12 11.9996C14.7614 11.9996 17 9.53717 17 6.49961C17 3.46204 14.7614 0.999611 12 0.999611C9.23858 0.999611 7 3.46204 7 6.49961C7 9.53717 9.23858 11.9996 12 11.9996ZM12 9.79961C10.3431 9.79961 9 8.32215 9 6.49961C9 4.67707 10.3431 3.19961 12 3.19961C13.6569 3.19961 15 4.67707 15 6.49961C15 8.32215 13.6569 9.79961 12 9.79961Z" fill="#161515"/>
<path fill-rule="evenodd" clip-rule="evenodd" d="M19.1029 14.1083C18.2604 13.263 16.957 13.0807 15.9161 13.6983C15.7257 13.8113 15.5581 13.9147 15.4036 14.0101C14.9937 14.2631 14.6755 14.4594 14.2654 14.6279C13.75 14.8397 13.0835 14.9996 12 14.9996C10.9268 14.9996 10.2493 14.8487 9.72609 14.6443C9.26355 14.4636 8.89822 14.2366 8.41685 13.9375C8.32296 13.8791 8.22448 13.8179 8.12019 13.7539C7.07587 13.1128 5.73464 13.2618 4.86415 14.1415C4.48443 14.5252 4.04036 15.0215 3.6849 15.5622C3.34603 16.0777 3 16.7634 3 17.4996V19.9999C3 21.657 4.34334 22.9996 6 22.9996H18C19.6567 22.9996 21 21.657 21 19.9999V17.4996C21 16.7537 20.6447 16.0588 20.2996 15.5387C19.937 14.9924 19.4852 14.4919 19.1029 14.1083ZM16.9367 15.4183C17.1759 15.2764 17.478 15.3112 17.6863 15.5201C18.0214 15.8564 18.3724 16.2517 18.6331 16.6446C18.9113 17.0638 19 17.3516 19 17.4996V19.9999C19 20.552 18.5525 20.9996 18 20.9996H6C5.44752 20.9996 5 20.552 5 19.9999V17.4996C5 17.3545 5.08549 17.0726 5.35613 16.6609C5.61017 16.2744 5.95358 15.884 6.28579 15.5483C6.49412 15.3377 6.81106 15.297 7.07389 15.4584C7.15661 15.5092 7.24087 15.5617 7.32694 15.6155C7.80938 15.9167 8.34918 16.2536 8.99836 16.5072C9.79304 16.8177 10.7242 16.9996 12 16.9996C13.3002 16.9996 14.2313 16.8042 15.0254 16.4779C15.6006 16.2416 16.1079 15.9278 16.5558 15.6508C16.6879 15.5691 16.8148 15.4906 16.9367 15.4183Z" fill="#161515"/>
</g></symbol></svg>