<?xml version="1.0" encoding="UTF-8"?><!DOCTYPE svg PUBLIC "-//W3C//DTD SVG 1.1//EN" "http://www.w3.org/Graphics/SVG/1.1/DTD/svg11.dtd"><svg xmlns="http://www.w3.org/2000/svg" xmlns:xlink="http://www.w3.org/1999/xlink"><defs>
<clipPath id="clip0_7_894">
<rect width="20" height="20" fill="white"/>
</clipPath>
<clipPath id="clip1_7_894">
<rect width="20" height="20" fill="white"/>
</clipPath>

<clipPath id="clip0_7_907">
<rect width="20" height="20" fill="white"/>
</clipPath>
<clipPath id="clip1_7_907">
<rect width="20" height="20" fill="white"/>
</clipPath>
</defs><symbol id="arrow-left" viewBox="0 0 10 18"><g fill="none">
<path d="M9.68268 0.292123C9.25959 -0.0973741 8.57362 -0.0973745 8.15053 0.292123L0.951957 6.91911C-0.316973 8.08729 -0.31737 9.98116 0.951072 11.1498L8.06933 17.7079C8.49242 18.0974 9.17839 18.0974 9.60148 17.7079C10.0246 17.3184 10.0246 16.6869 9.60148 16.2974L2.48137 9.74262C2.05828 9.35313 2.05828 8.72163 2.48137 8.33213L9.68268 1.70262C10.1058 1.31312 10.1058 0.68162 9.68268 0.292123Z" fill="#4F4F4F"/>
</g></symbol><symbol id="arrow-next" viewBox="0 0 12 4"><g fill="none">
<path d="M8.39994 3.74399C8.55994 3.40266 8.71461 3.10399 8.86394 2.84799C9.02394 2.59199 9.17861 2.37866 9.32794 2.20799H-6.1512e-05V1.53599H9.32794C9.17861 1.35466 9.02394 1.13599 8.86394 0.879994C8.71461 0.623994 8.55994 0.33066 8.39994 -6.19888e-06H8.95994C9.63194 0.778661 10.3359 1.35466 11.0719 1.72799V2.01599C10.3359 2.37866 9.63194 2.95466 8.95994 3.74399H8.39994Z" fill="#161515"/>
</g></symbol><symbol id="arrow-prew" viewBox="0 0 12 4"><g fill="none">
<path d="M2.67233 3.74399C2.51233 3.40266 2.35766 3.10399 2.20833 2.84799C2.04833 2.59199 1.89366 2.37866 1.74433 2.20799H11.0723V1.53599H1.74433C1.89366 1.35466 2.04833 1.13599 2.20833 0.879994C2.35766 0.623994 2.51233 0.33066 2.67233 -6.19888e-06H2.11233C1.44033 0.778661 0.736327 1.35466 0.00032711 1.72799V2.01599C0.736327 2.37866 1.44033 2.95466 2.11233 3.74399H2.67233Z" fill="#161515"/>
</g></symbol><symbol id="arrow-right" viewBox="0 0 10 18"><g fill="none">
<path opacity="0.8" d="M0.317318 17.7079C0.740411 18.0974 1.42638 18.0974 1.84947 17.7079L9.04804 11.0809C10.317 9.91271 10.3174 8.01884 9.04893 6.85022L1.93067 0.292122C1.50758 -0.097374 0.821609 -0.097374 0.398517 0.292122C-0.0245743 0.68162 -0.0245743 1.31312 0.398517 1.70262L7.51863 8.25738C7.94172 8.64687 7.94172 9.27837 7.51863 9.66787L0.317318 16.2974C-0.105774 16.6869 -0.105774 17.3184 0.317318 17.7079Z" fill="#4F4F4F"/>
</g></symbol><symbol id="bag" viewBox="0 0 24 24"><g fill="none">
<path fill-rule="evenodd" clip-rule="evenodd" d="M16.5286 5.99961C16.5099 5.91891 16.4904 5.83803 16.4702 5.75708C16.2062 4.70099 15.7904 3.55344 15.1126 2.64961C14.4136 1.71763 13.3929 0.999611 12.0001 0.999611C10.6072 0.999611 9.58654 1.71763 8.88756 2.64961C8.20969 3.55344 7.79394 4.70099 7.52991 5.75708C7.50968 5.83803 7.49022 5.91891 7.47151 5.99961H5.87116C4.29177 5.99961 2.98287 7.22416 2.87781 8.80005L2.14448 19.8001C2.02904 21.5316 3.40244 22.9996 5.13783 22.9996H18.8623C20.5977 22.9996 21.9711 21.5316 21.8556 19.8001L21.1223 8.80005C21.0172 7.22416 19.7083 5.99961 18.129 5.99961H16.5286ZM8.00006 10.9996C8.57304 10.9996 8.99812 10.568 9.00007 9.99778C9.00022 9.974 9.0005 9.95021 9.0009 9.92643C9.00178 9.87374 9.00357 9.79416 9.00724 9.69155C9.01457 9.48613 9.02936 9.1896 9.05911 8.83266C9.08021 8.57937 9.10865 8.29823 9.1468 7.99961H14.8533C14.8915 8.29823 14.9199 8.57937 14.941 8.83266C14.9708 9.1896 14.9855 9.48613 14.9929 9.69155C14.9965 9.79416 14.9983 9.87374 14.9992 9.92643C14.9996 9.95095 15 9.97548 15.0001 10C15.0001 10 15.0001 10.9996 16.0001 10.9996C17.0001 10.9996 17.0001 9.99827 17.0001 9.99827C17 9.96321 16.9995 9.92815 16.9989 9.8931C16.9979 9.82861 16.9958 9.73631 16.9916 9.62017C16.9833 9.38809 16.9669 9.05962 16.9341 8.66657C16.917 8.46163 16.8954 8.23773 16.868 7.99961H18.129C18.6554 7.99961 19.0917 8.40779 19.1267 8.93309L19.8601 19.9331C19.8986 20.5103 19.4408 20.9996 18.8623 20.9996H5.13783C4.55937 20.9996 4.10157 20.5103 4.14005 19.9331L4.87338 8.93309C4.9084 8.40779 5.3447 7.99961 5.87116 7.99961H7.13214C7.10471 8.23773 7.08309 8.46163 7.06601 8.66657C7.03326 9.05962 7.0168 9.38809 7.00851 9.62017C7.00436 9.73631 7.00225 9.82861 7.00118 9.8931C7.0006 9.92746 7.00017 9.96182 7.00007 9.99619C6.9993 10.5668 7.42839 10.9996 8.00006 10.9996ZM9.53358 5.99961H14.4665C14.2353 5.15283 13.9211 4.39427 13.5126 3.84961C13.0865 3.28159 12.6072 2.99961 12.0001 2.99961C11.3929 2.99961 10.9136 3.28159 10.4876 3.84961C10.0791 4.39427 9.76479 5.15283 9.53358 5.99961Z" fill="#161515"/>
</g></symbol><symbol id="basket" viewBox="0 0 20 20"><g fill="none">
<path fill-rule="evenodd" clip-rule="evenodd" d="M7.10869 0.833008C4.60244 0.833008 2.66333 3.0296 2.9742 5.51649L4.40669 16.9764C4.56307 18.2275 5.62657 19.1663 6.88738 19.1663H13.1114C14.3722 19.1663 15.4358 18.2275 15.5921 16.9764L17.0246 5.51649C17.3355 3.0296 15.3964 0.833008 12.8901 0.833008H7.10869ZM4.75064 4.16634C5.09163 3.20426 6.0092 2.49967 7.10869 2.49967H12.8901C13.9896 2.49967 14.9072 3.20426 15.2482 4.16634H4.75064ZM4.6934 5.83301L6.06048 16.7697C6.11261 17.1867 6.46711 17.4997 6.88738 17.4997H13.1114C13.5317 17.4997 13.8862 17.1867 13.9383 16.7697L15.3054 5.83301H4.6934Z" fill="#4F4F4F"/>
<path d="M12.501 9.16471C12.1756 8.83928 11.648 8.83928 11.3225 9.16471L9.99943 10.4878L8.68282 9.17121C8.35738 8.84577 7.82974 8.84577 7.5043 9.17121C7.17887 9.49665 7.17887 10.0243 7.5043 10.3497L8.82092 11.6663L7.49942 12.9878C7.17398 13.3133 7.17398 13.8409 7.49942 14.1663C7.82486 14.4918 8.3525 14.4918 8.67793 14.1663L9.99943 12.8448L11.3225 14.168C11.648 14.4934 12.1756 14.4934 12.501 14.168C12.8265 13.8425 12.8265 13.3149 12.501 12.9894L11.1779 11.6663L12.501 10.3432C12.8265 10.0178 12.8265 9.49015 12.501 9.16471Z" fill="#4F4F4F"/>
</g></symbol><symbol id="blog-comment" viewBox="0 0 24 24"><g fill="none">
<path d="M20 2.00098H4C2.897 2.00098 2 2.89798 2 4.00098V22.001L7.333 18.001H20C21.103 18.001 22 17.104 22 16.001V4.00098C22 2.89798 21.103 2.00098 20 2.00098ZM20 16.001H6.667L4 18.001V4.00098H20V16.001Z" fill="#4F4F4F"/>
</g></symbol><symbol id="blog-like" viewBox="0 0 24 24"><g fill="none">
<path d="M20 8.00098H14.388L15.511 4.63398C15.713 4.02598 15.611 3.35198 15.236 2.83198C14.861 2.31198 14.253 2.00098 13.612 2.00098H12C11.703 2.00098 11.422 2.13298 11.231 2.36098L6.531 8.00098H4C2.897 8.00098 2 8.89798 2 10.001V19.001C2 20.104 2.897 21.001 4 21.001H7H17.307C18.136 21.001 18.888 20.48 19.18 19.703L21.937 12.352C21.979 12.24 22 12.121 22 12.001V10.001C22 8.89798 21.103 8.00098 20 8.00098ZM4 10.001H6V19.001H4V10.001ZM20 11.82L17.307 19.001H8V9.36298L12.468 4.00098H13.614L12.052 8.68398C11.949 8.98898 12.001 9.32398 12.189 9.58498C12.377 9.84698 12.679 10.001 13 10.001H20V11.82Z" fill="#4F4F4F"/>
</g></symbol><symbol id="blog-share" viewBox="0 0 24 24"><g fill="none">
<path d="M5.5 15.001C6.41 15.001 7.233 14.643 7.857 14.071L14.117 17.648C14.048 17.923 14 18.205 14 18.501C14 20.431 15.57 22.001 17.5 22.001C19.43 22.001 21 20.431 21 18.501C21 16.571 19.43 15.001 17.5 15.001C16.59 15.001 15.767 15.359 15.143 15.931L8.883 12.354C8.946 12.107 8.986 11.852 8.991 11.586L15.142 8.07098C15.767 8.64298 16.59 9.00098 17.5 9.00098C19.43 9.00098 21 7.43098 21 5.50098C21 3.57098 19.43 2.00098 17.5 2.00098C15.57 2.00098 14 3.57098 14 5.50098C14 5.79698 14.048 6.07898 14.117 6.35398L8.433 9.60298C7.808 8.64098 6.729 8.00098 5.5 8.00098C3.57 8.00098 2 9.57098 2 11.501C2 13.431 3.57 15.001 5.5 15.001ZM17.5 17.001C18.327 17.001 19 17.674 19 18.501C19 19.328 18.327 20.001 17.5 20.001C16.673 20.001 16 19.328 16 18.501C16 17.674 16.673 17.001 17.5 17.001ZM17.5 4.00098C18.327 4.00098 19 4.67398 19 5.50098C19 6.32798 18.327 7.00098 17.5 7.00098C16.673 7.00098 16 6.32798 16 5.50098C16 4.67398 16.673 4.00098 17.5 4.00098ZM5.5 10.001C6.327 10.001 7 10.674 7 11.501C7 12.328 6.327 13.001 5.5 13.001C4.673 13.001 4 12.328 4 11.501C4 10.674 4.673 10.001 5.5 10.001Z" fill="#4F4F4F"/>
</g></symbol><symbol id="catalog-grid" viewBox="0 0 20 20"><g fill="none">
<g clip-path="url(#clip0_7_894)">
<g clip-path="url(#clip1_7_894)">
<path d="M5.46702 0.621633C5.46702 0.277663 5.18936 0 4.84538 0H0.659719C0.315749 0 0.0380859 0.277663 0.0380859 0.621633V4.80937C0.0380859 5.15334 0.315749 5.431 0.659719 5.431H4.84746C5.19143 5.431 5.46909 5.15334 5.46909 4.80937V0.621633H5.46702Z" fill="#4F4F4F"/>
<path d="M12.7131 0.621633C12.7131 0.277663 12.4354 0 12.0915 0H7.90581C7.56184 0 7.28418 0.277663 7.28418 0.621633V4.80937C7.28418 5.15334 7.56184 5.431 7.90581 5.431H12.0915C12.4354 5.431 12.7131 5.15334 12.7131 4.80937V0.621633Z" fill="#4F4F4F"/>
<path d="M19.9592 0.621633C19.9592 0.277663 19.6815 0 19.3376 0H15.1519C14.8079 0 14.5303 0.277663 14.5303 0.621633V4.80937C14.5303 5.15334 14.8079 5.431 15.1519 5.431H19.3396C19.6836 5.431 19.9613 5.15334 19.9613 4.80937V0.621633H19.9592Z" fill="#4F4F4F"/>
<path d="M5.46702 7.90679C5.46702 7.56282 5.18936 7.28516 4.84538 7.28516H0.659719C0.315749 7.28516 0.0380859 7.56282 0.0380859 7.90679V12.0925C0.0380859 12.4364 0.315749 12.7141 0.659719 12.7141H4.84746C5.19143 12.7141 5.46909 12.4364 5.46909 12.0925V7.90679H5.46702Z" fill="#4F4F4F"/>
<path d="M12.7131 7.90679C12.7131 7.56282 12.4354 7.28516 12.0915 7.28516H7.90581C7.56184 7.28516 7.28418 7.56282 7.28418 7.90679V12.0925C7.28418 12.4364 7.56184 12.7141 7.90581 12.7141H12.0915C12.4354 12.7141 12.7131 12.4364 12.7131 12.0925V7.90679Z" fill="#4F4F4F"/>
<path d="M19.9592 7.90679C19.9592 7.56282 19.6815 7.28516 19.3376 7.28516H15.1519C14.8079 7.28516 14.5303 7.56282 14.5303 7.90679V12.0925C14.5303 12.4364 14.8079 12.7141 15.1519 12.7141H19.3396C19.6836 12.7141 19.9613 12.4364 19.9613 12.0925V7.90679H19.9592Z" fill="#4F4F4F"/>
<path d="M4.84538 14.5693H0.659719C0.315749 14.5693 0.0380859 14.847 0.0380859 15.191V19.3787C0.0380859 19.7227 0.315749 20.0003 0.659719 20.0003H4.84746C5.19143 20.0003 5.46909 19.7227 5.46909 19.3787V15.191C5.46702 14.8491 5.18936 14.5693 4.84538 14.5693Z" fill="#4F4F4F"/>
<path d="M12.0915 14.5693H7.90581C7.56184 14.5693 7.28418 14.847 7.28418 15.191V19.3787C7.28418 19.7227 7.56184 20.0003 7.90581 20.0003H12.0915C12.4354 20.0003 12.7131 19.7227 12.7131 19.3787V15.191C12.7131 14.8491 12.4354 14.5693 12.0915 14.5693Z" fill="#4F4F4F"/>
<path d="M19.3376 14.5693H15.1519C14.8079 14.5693 14.5303 14.847 14.5303 15.191V19.3787C14.5303 19.7227 14.8079 20.0003 15.1519 20.0003H19.3396C19.6836 20.0003 19.9613 19.7227 19.9613 19.3787V15.191C19.9592 14.8491 19.6815 14.5693 19.3376 14.5693Z" fill="#4F4F4F"/>
</g>
</g>

</g></symbol><symbol id="catalog-line" viewBox="0 0 20 20"><g fill="none">
<g clip-path="url(#clip0_7_907)">
<g clip-path="url(#clip1_7_907)">
<path d="M5.07692 0H0V5H5.07692V0ZM20 0H7V5H20V0ZM0 7.5H5V12.5H0V7.5ZM20 7.5H7V12.5H20V7.5ZM0 15H5.07692V20H0V15ZM20 15H7V20H20V15Z" fill="#4F4F4F"/>
</g>
</g>

</g></symbol><symbol id="checkout-decor" viewBox="0 0 94 18"><g fill="none">
<path d="M0 8.9441L9.0559 0L18 8.9441L9.0559 18L0 8.9441Z" fill="#161515"/>
<path d="M38 8.9441L47.0559 0L56 8.9441L47.0559 18L38 8.9441Z" fill="#161515"/>
<path d="M76 8.9441L85.0559 0L94 8.9441L85.0559 18L76 8.9441Z" fill="#161515"/>
</g></symbol><symbol id="checkout-del" viewBox="0 0 40 40"><g fill="none">
<path d="M11.6579 11.6776C11.007 12.3285 11.007 13.3838 11.6579 14.0346L17.6331 20.0099L11.6579 25.9851C11.007 26.636 11.007 27.6913 11.6579 28.3422C12.3087 28.993 13.364 28.993 14.0149 28.3422L19.9901 22.3669L25.9654 28.3421C26.6162 28.993 27.6715 28.993 28.3224 28.3421C28.9733 27.6913 28.9733 26.636 28.3224 25.9851L22.3472 20.0099L28.3224 14.0347C28.9733 13.3838 28.9733 12.3285 28.3224 11.6776C27.6715 11.0268 26.6162 11.0268 25.9654 11.6776L19.9901 17.6529L14.0149 11.6776C13.364 11.0267 12.3087 11.0267 11.6579 11.6776Z" fill="#4F4F4F"/>
</g></symbol><symbol id="envelope" viewBox="0 0 15 11"><g fill="none">
<path d="M13.4402 11H1.18774C0.500102 11 0 10.4107 0 9.75595V1.24405C0 0.52381 0.562615 0 1.18774 0H13.4402C14.1279 0 14.628 0.589286 14.628 1.24405V9.75595C14.628 10.4762 14.0654 11 13.4402 11ZM1.18774 0.458334C0.812666 0.458334 0.437589 0.785714 0.437589 1.24405V9.75595C0.437589 10.2143 0.750153 10.5417 1.18774 10.5417H13.4402C13.8778 10.5417 14.1904 10.2143 14.1904 9.75595V1.24405C14.1904 0.785714 13.8778 0.458334 13.4402 0.458334H1.18774Z" fill="white"/>
<path d="M7.31411 5.76197C7.2516 5.76197 7.12657 5.69649 7.12657 5.63102C7.06406 5.50006 7.12657 5.36911 7.2516 5.30363L14.3155 1.70244C14.4406 1.63697 14.5656 1.70244 14.6281 1.8334C14.6906 1.96435 14.6281 2.0953 14.5031 2.16078L7.43914 5.76197C7.37663 5.76197 7.37663 5.76197 7.31411 5.76197Z" fill="white"/>
<path d="M7.31401 5.76173C7.2515 5.76173 7.2515 5.76173 7.18899 5.76173L0.187559 1.7022C0.0625334 1.63673 0.0625334 1.50578 0.125046 1.37482C0.187559 1.30935 0.312584 1.24387 0.43761 1.30935L7.43904 5.3034C7.56407 5.36887 7.56406 5.49982 7.56406 5.63078C7.50155 5.69625 7.37653 5.76173 7.31401 5.76173Z" fill="white"/>
</g></symbol><symbol id="facebook" viewBox="0 0 25 25"><g fill="none">
<path d="M12.3437 24.3437C5.76984 24.3437 0.34375 18.9177 0.34375 12.3437C0.34375 5.76984 5.76984 0.34375 12.3437 0.34375C18.9177 0.34375 24.3437 5.76984 24.3437 12.3437C24.3437 18.9177 18.9177 24.3437 12.3437 24.3437Z" stroke="white" stroke-width="0.6875" stroke-miterlimit="10" stroke-linecap="round" stroke-linejoin="round"/>
<path d="M15.652 6.30208C16.1583 6.30208 16.5687 5.89168 16.5687 5.38542C16.5687 4.87916 16.1583 4.46875 15.652 4.46875C15.1458 4.46875 14.7354 4.87916 14.7354 5.38542C14.7354 5.89168 15.1458 6.30208 15.652 6.30208Z" stroke="white" stroke-width="0.6875" stroke-miterlimit="10" stroke-linecap="round" stroke-linejoin="round"/>
<path d="M9.78516 14.7352H11.9852C13.4518 14.7352 14.7352 13.4518 14.7352 11.9852V9.78516C14.7352 8.31849 13.4518 7.03516 11.9852 7.03516H9.78516C8.31849 7.03516 7.03516 8.31849 7.03516 9.78516V11.9852C7.03516 13.5435 8.22682 14.7352 9.78516 14.7352Z" stroke="white" stroke-width="0.6875" stroke-miterlimit="10" stroke-linecap="round" stroke-linejoin="round"/>
</g></symbol><symbol id="favorit" viewBox="0 0 16 15"><g fill="none">
<path fill-rule="evenodd" clip-rule="evenodd" d="M1.94329 2.83607C1.42928 3.71724 1.26011 4.93994 1.57593 6.2032C1.68958 6.6578 2.01998 7.24224 2.5436 7.91491C3.05707 8.57453 3.71245 9.26408 4.40659 9.92569C5.78294 11.2375 7.26414 12.3948 7.97208 12.9299C8.68001 12.3948 10.1612 11.2375 11.5376 9.92569C12.2317 9.26408 12.8871 8.57453 13.4006 7.91491C13.9242 7.24224 14.2546 6.6578 14.3682 6.2032C14.6841 4.93994 14.5149 3.71724 14.0009 2.83608C13.4992 1.976 12.6614 1.41667 11.5137 1.41667C10.5153 1.41667 9.81155 2.15495 9.31397 3.15011C9.07488 3.62828 8.91236 4.11361 8.80952 4.48385C8.75847 4.66762 8.72303 4.81975 8.70066 4.92413C8.62139 5.29403 8.1947 5.3125 7.97208 5.3125C7.74946 5.3125 7.32202 5.29058 7.2435 4.92414C7.22113 4.81975 7.18568 4.66763 7.13463 4.48385C7.03179 4.11361 6.86927 3.62829 6.63018 3.15011C6.1326 2.15495 5.42885 1.41667 4.4304 1.41667C3.28277 1.41667 2.445 1.976 1.94329 2.83607ZM7.97207 2.6705C7.99624 2.6193 8.02116 2.56796 8.04686 2.51656C8.61178 1.38672 9.67888 0 11.5137 0C13.1994 0 14.4867 0.857334 15.2245 2.12226C15.9501 3.36609 16.1351 4.97673 15.7426 6.5468C15.5566 7.29066 15.0805 8.0631 14.5185 8.78511C13.9463 9.52017 13.2369 10.2631 12.515 10.9512C11.0704 12.328 9.52734 13.5307 8.80863 14.0734C8.31231 14.4481 7.63184 14.4481 7.13553 14.0734C6.41681 13.5307 4.87371 12.328 3.42917 10.9512C2.70727 10.2631 1.99789 9.52017 1.4257 8.78511C0.863676 8.0631 0.387527 7.29066 0.20156 6.5468C-0.190957 4.97673 -0.00596137 3.36609 0.719604 2.12226C1.45747 0.857334 2.7447 0 4.4304 0C6.26526 0 7.33236 1.38672 7.89729 2.51656C7.92299 2.56796 7.94791 2.6193 7.97207 2.6705Z" fill="#4F4F4F"/>
</g></symbol><symbol id="heart" viewBox="0 0 24 21"><g fill="none">
<path d="M10.5844 20.4285L10.4672 20.3181L2.25469 12.5045C0.815625 11.1358 0 9.21483 0 7.20261V7.04413C0 3.66322 2.34375 0.762546 5.5875 0.128625C7.43437 -0.23636 9.32344 0.200662 10.8281 1.28601C11.25 1.59337 11.6438 1.94875 12 2.35695C12.1969 2.12644 12.4078 1.91513 12.6328 1.71823C12.8062 1.56455 12.9844 1.42048 13.1719 1.28601C14.6766 0.200662 16.5656 -0.23636 18.4125 0.123823C21.6562 0.757744 24 3.66322 24 7.04413V7.20261C24 9.21483 23.1844 11.1358 21.7453 12.5045L13.5328 20.3181L13.4156 20.4285C13.0313 20.7935 12.525 21 12 21C11.475 21 10.9688 20.7983 10.5844 20.4285ZM11.2078 4.90705C11.1891 4.89264 11.175 4.87343 11.1609 4.85422L10.3266 3.89373L10.3219 3.88893C9.23906 2.6451 7.60312 2.07841 6.00937 2.39057C3.825 2.81799 2.25 4.76778 2.25 7.04413V7.20261C2.25 8.5713 2.80781 9.88237 3.7875 10.814L12 18.6276L20.2125 10.814C20.6973 10.3526 21.084 9.79382 21.3485 9.17245C21.6131 8.55108 21.7497 7.88051 21.75 7.20261V7.04413C21.75 4.77258 20.175 2.81799 17.9953 2.39057C16.4016 2.07841 14.7609 2.6499 13.6828 3.88893L13.6781 3.89373L13.6734 3.89854L12.8391 4.85902C12.825 4.87823 12.8062 4.89264 12.7922 4.91185C12.5812 5.12796 12.2953 5.24802 12 5.24802C11.7047 5.24802 11.4188 5.12796 11.2078 4.91185V4.90705Z" fill="#161515"/>
</g></symbol><symbol id="icon-grid" viewBox="0 0 40 40"><g fill="none">
<path d="M15.9375 3.75H5.3125C4.44956 3.75 3.75 4.44956 3.75 5.3125V15.9375C3.75 16.8004 4.44956 17.5 5.3125 17.5H15.9375C16.8004 17.5 17.5 16.8004 17.5 15.9375V5.3125C17.5 4.44956 16.8004 3.75 15.9375 3.75Z" stroke="#161515" stroke-width="2" stroke-linecap="round" stroke-linejoin="round"/>
<path d="M34.6875 3.75H24.0625C23.1996 3.75 22.5 4.44956 22.5 5.3125V15.9375C22.5 16.8004 23.1996 17.5 24.0625 17.5H34.6875C35.5504 17.5 36.25 16.8004 36.25 15.9375V5.3125C36.25 4.44956 35.5504 3.75 34.6875 3.75Z" stroke="#161515" stroke-width="2" stroke-linecap="round" stroke-linejoin="round"/>
<path d="M15.9375 22.5H5.3125C4.44956 22.5 3.75 23.1996 3.75 24.0625V34.6875C3.75 35.5504 4.44956 36.25 5.3125 36.25H15.9375C16.8004 36.25 17.5 35.5504 17.5 34.6875V24.0625C17.5 23.1996 16.8004 22.5 15.9375 22.5Z" stroke="#161515" stroke-width="2" stroke-linecap="round" stroke-linejoin="round"/>
<path d="M34.6875 22.5H24.0625C23.1996 22.5 22.5 23.1996 22.5 24.0625V34.6875C22.5 35.5504 23.1996 36.25 24.0625 36.25H34.6875C35.5504 36.25 36.25 35.5504 36.25 34.6875V24.0625C36.25 23.1996 35.5504 22.5 34.6875 22.5Z" stroke="#161515" stroke-width="2" stroke-linecap="round" stroke-linejoin="round"/>
</g></symbol><symbol id="icon-size" viewBox="0 0 17 17"><g fill="none">
<path fill-rule="evenodd" clip-rule="evenodd" d="M6.37516 6.37468H14.8752C15.6576 6.37468 16.2918 5.74041 16.2918 4.95801V2.12467C16.2918 1.34227 15.6576 0.708008 14.8752 0.708008H2.12516C1.34276 0.708008 0.708496 1.34227 0.708496 2.12467V14.8747C0.708496 15.6571 1.34276 16.2913 2.12516 16.2913H4.9585C5.7409 16.2913 6.37516 15.6571 6.37516 14.8747V6.37468ZM4.9585 12.0413V9.91634H4.25016C3.85896 9.91634 3.54183 9.59921 3.54183 9.20801C3.54183 8.81681 3.85896 8.49968 4.25016 8.49968H4.9585V6.37468H4.25016C3.85896 6.37468 3.54183 6.05754 3.54183 5.66634C3.54183 5.27514 3.85896 4.95801 4.25016 4.95801H4.9585V4.24968C4.9585 3.85847 5.27563 3.54134 5.66683 3.54134C6.05803 3.54134 6.37516 3.85847 6.37516 4.24968V4.95801H8.50016V4.24968C8.50016 3.85847 8.8173 3.54134 9.2085 3.54134C9.5997 3.54134 9.91683 3.85847 9.91683 4.24968V4.95801H12.0418V4.24968C12.0418 3.85847 12.359 3.54134 12.7502 3.54134C13.1414 3.54134 13.4585 3.85847 13.4585 4.24968V4.95801H14.1668C14.558 4.95801 14.8752 4.64088 14.8752 4.24968V2.83301C14.8752 2.44181 14.558 2.12467 14.1668 2.12467H2.8335C2.44229 2.12467 2.12516 2.44181 2.12516 2.83301V14.1663C2.12516 14.5575 2.44229 14.8747 2.8335 14.8747H4.25016C4.64137 14.8747 4.9585 14.5575 4.9585 14.1663V13.458H4.25016C3.85896 13.458 3.54183 13.1409 3.54183 12.7497C3.54183 12.3585 3.85896 12.0413 4.25016 12.0413H4.9585Z" fill="#94897C"/>
</g></symbol><symbol id="instagram" viewBox="0 0 25 25"><g fill="none">
<path d="M12.3437 24.3437C5.76984 24.3437 0.34375 18.9177 0.34375 12.3437C0.34375 5.76984 5.76984 0.34375 12.3437 0.34375C18.9177 0.34375 24.3437 5.76984 24.3437 12.3437C24.3437 18.9177 18.9177 24.3437 12.3437 24.3437Z" stroke="white" stroke-width="0.6875" stroke-miterlimit="10" stroke-linecap="round" stroke-linejoin="round"/>
<path d="M14.8481 6.39551C12.8655 6.39551 11.3003 7.96072 11.3003 9.94333V18.7085" stroke="white" stroke-width="0.6875" stroke-miterlimit="10" stroke-linecap="round" stroke-linejoin="round"/>
<path d="M9.62988 12.5518H14.4299" stroke="white" stroke-width="0.6875" stroke-miterlimit="10" stroke-linecap="round" stroke-linejoin="round"/>
</g></symbol><symbol id="like-white" viewBox="0 0 24 21"><g fill="none">
<path d="M10.5844 20.4285L10.4672 20.3181L2.25469 12.5045C0.815625 11.1358 0 9.21483 0 7.20261V7.04413C0 3.66322 2.34375 0.762546 5.5875 0.128625C7.43437 -0.23636 9.32344 0.200662 10.8281 1.28601C11.25 1.59337 11.6438 1.94875 12 2.35695C12.1969 2.12644 12.4078 1.91513 12.6328 1.71823C12.8062 1.56455 12.9844 1.42048 13.1719 1.28601C14.6766 0.200662 16.5656 -0.23636 18.4125 0.123823C21.6562 0.757744 24 3.66322 24 7.04413V7.20261C24 9.21483 23.1844 11.1358 21.7453 12.5045L13.5328 20.3181L13.4156 20.4285C13.0313 20.7935 12.525 21 12 21C11.475 21 10.9688 20.7983 10.5844 20.4285ZM11.2078 4.90705C11.1891 4.89264 11.175 4.87343 11.1609 4.85422L10.3266 3.89373L10.3219 3.88893C9.23906 2.6451 7.60312 2.07841 6.00937 2.39057C3.825 2.81799 2.25 4.76778 2.25 7.04413V7.20261C2.25 8.5713 2.80781 9.88237 3.7875 10.814L12 18.6276L20.2125 10.814C20.6973 10.3526 21.084 9.79382 21.3485 9.17245C21.6131 8.55108 21.7497 7.88051 21.75 7.20261V7.04413C21.75 4.77258 20.175 2.81799 17.9953 2.39057C16.4016 2.07841 14.7609 2.6499 13.6828 3.88893L13.6781 3.89373L13.6734 3.89854L12.8391 4.85902C12.825 4.87823 12.8062 4.89264 12.7922 4.91185C12.5812 5.12796 12.2953 5.24802 12 5.24802C11.7047 5.24802 11.4188 5.12796 11.2078 4.91185V4.90705Z" fill="#CDCDCD"/>
</g></symbol><symbol id="lucide-list" viewBox="0 0 40 40"><g fill="none">
<path d="M13.3333 10H35M13.3333 20H35M13.3333 30H35M5 10H5.01667M5 20H5.01667M5 30H5.01667" stroke="#161515" stroke-width="2" stroke-linecap="round" stroke-linejoin="round"/>
</g></symbol><symbol id="mobile-btn" viewBox="0 0 30 18"><g fill="none">
<line y1="1" x2="30" y2="1" stroke="#513C27" stroke-width="2"/>
<line y1="9" x2="30" y2="9" stroke="#513C27" stroke-width="2"/>
<line y1="17" x2="30" y2="17" stroke="#513C27" stroke-width="2"/>
</g></symbol><symbol id="reviews-arrow-next" viewBox="0 0 25 16"><g fill="none">
<path d="M23.3333 7.82018L15.8667 0.353516M23.3333 7.82018L15.8667 15.2868M23.3333 7.82018H0" stroke="#161515"/>
</g></symbol><symbol id="reviews-arrow-prev" viewBox="0 0 25 16"><g fill="none">
<path d="M0.707682 7.82018L8.17435 0.353516M0.707682 7.82018L8.17435 15.2868M0.707682 7.82018H24.041" stroke="#161515"/>
</g></symbol><symbol id="search" viewBox="0 0 18 18"><g fill="none">
<path d="M17.3996 17.4L12.5996 12.6M7.79961 15C3.82316 15 0.599609 11.7764 0.599609 7.79998C0.599609 3.82353 3.82316 0.599976 7.79961 0.599976C11.7761 0.599976 14.9996 3.82353 14.9996 7.79998C14.9996 11.7764 11.7761 15 7.79961 15Z" stroke="#161515"/>
</g></symbol><symbol id="star-active" viewBox="0 0 24 24"><g fill="none">
<path d="M11.5245 1.46353C11.6741 1.00287 12.3259 1.00287 12.4755 1.46353L14.5819 7.9463C14.6488 8.15232 14.8408 8.2918 15.0574 8.2918H21.8738C22.3582 8.2918 22.5596 8.9116 22.1677 9.1963L16.6531 13.2029C16.4779 13.3302 16.4046 13.5559 16.4715 13.7619L18.5779 20.2447C18.7276 20.7053 18.2003 21.0884 17.8085 20.8037L12.2939 16.7971C12.1186 16.6698 11.8814 16.6698 11.7061 16.7971L6.19153 20.8037C5.79967 21.0884 5.27243 20.7053 5.42211 20.2447L7.52849 13.7619C7.59543 13.5559 7.5221 13.3302 7.34685 13.2029L1.83227 9.1963C1.44041 8.9116 1.6418 8.2918 2.12616 8.2918H8.94256C9.15917 8.2918 9.35115 8.15232 9.41809 7.9463L11.5245 1.46353Z" fill="#161515"/>
</g></symbol><symbol id="star" viewBox="0 0 24 24"><g fill="none">
<path d="M11.7607 1.54004C11.836 1.30896 12.164 1.30896 12.2393 1.54004L14.3457 8.02344C14.4461 8.33179 14.7333 8.54102 15.0576 8.54102H21.874C22.1172 8.54118 22.2183 8.85215 22.0215 8.99512L16.5068 13.002C16.2446 13.1927 16.1342 13.5304 16.2344 13.8389L18.3408 20.3213C18.416 20.5526 18.1519 20.7451 17.9551 20.6025L12.4404 16.5957C12.178 16.405 11.822 16.405 11.5596 16.5957L6.04492 20.6025C5.84812 20.7451 5.58404 20.5526 5.65918 20.3213L7.76562 13.8389C7.86581 13.5304 7.75545 13.1927 7.49316 13.002L1.97852 8.99512C1.78174 8.85215 1.88282 8.54118 2.12598 8.54102H8.94238C9.26668 8.54102 9.55394 8.33179 9.6543 8.02344L11.7607 1.54004Z" stroke="#161515" stroke-width="0.497704"/>
</g></symbol><symbol id="user" viewBox="0 0 24 24"><g fill="none">
<path fill-rule="evenodd" clip-rule="evenodd" d="M12 11.9996C14.7614 11.9996 17 9.53717 17 6.49961C17 3.46204 14.7614 0.999611 12 0.999611C9.23858 0.999611 7 3.46204 7 6.49961C7 9.53717 9.23858 11.9996 12 11.9996ZM12 9.79961C10.3431 9.79961 9 8.32215 9 6.49961C9 4.67707 10.3431 3.19961 12 3.19961C13.6569 3.19961 15 4.67707 15 6.49961C15 8.32215 13.6569 9.79961 12 9.79961Z" fill="#161515"/>
<path fill-rule="evenodd" clip-rule="evenodd" d="M19.1029 14.1083C18.2604 13.263 16.957 13.0807 15.9161 13.6983C15.7257 13.8113 15.5581 13.9147 15.4036 14.0101C14.9937 14.2631 14.6755 14.4594 14.2654 14.6279C13.75 14.8397 13.0835 14.9996 12 14.9996C10.9268 14.9996 10.2493 14.8487 9.72609 14.6443C9.26355 14.4636 8.89822 14.2366 8.41685 13.9375C8.32296 13.8791 8.22448 13.8179 8.12019 13.7539C7.07587 13.1128 5.73464 13.2618 4.86415 14.1415C4.48443 14.5252 4.04036 15.0215 3.6849 15.5622C3.34603 16.0777 3 16.7634 3 17.4996V19.9999C3 21.657 4.34334 22.9996 6 22.9996H18C19.6567 22.9996 21 21.657 21 19.9999V17.4996C21 16.7537 20.6447 16.0588 20.2996 15.5387C19.937 14.9924 19.4852 14.4919 19.1029 14.1083ZM16.9367 15.4183C17.1759 15.2764 17.478 15.3112 17.6863 15.5201C18.0214 15.8564 18.3724 16.2517 18.6331 16.6446C18.9113 17.0638 19 17.3516 19 17.4996V19.9999C19 20.552 18.5525 20.9996 18 20.9996H6C5.44752 20.9996 5 20.552 5 19.9999V17.4996C5 17.3545 5.08549 17.0726 5.35613 16.6609C5.61017 16.2744 5.95358 15.884 6.28579 15.5483C6.49412 15.3377 6.81106 15.297 7.07389 15.4584C7.15661 15.5092 7.24087 15.5617 7.32694 15.6155C7.80938 15.9167 8.34918 16.2536 8.99836 16.5072C9.79304 16.8177 10.7242 16.9996 12 16.9996C13.3002 16.9996 14.2313 16.8042 15.0254 16.4779C15.6006 16.2416 16.1079 15.9278 16.5558 15.6508C16.6879 15.5691 16.8148 15.4906 16.9367 15.4183Z" fill="#161515"/>
</g></symbol></svg>