<svg width="80" height="22" viewBox="0 0 80 22" fill="none" xmlns="http://www.w3.org/2000/svg">
<g clip-path="url(#clip0_2551_718)">
<path d="M48.1703 14.4521C48.2749 17.2015 50.763 19.966 53.6172 19.966C54.7978 19.966 55.7616 19.6702 56.4864 19.1012C57.2037 18.5246 57.5697 17.7707 57.5697 16.8394C57.5697 16.0633 57.3306 15.4203 56.8599 14.9251C56.3818 14.4226 55.2908 13.8166 53.5872 13.1219C51.0394 12.0797 49.2985 11.0596 48.3719 10.0768C47.4453 9.09363 46.9822 7.85202 46.9822 6.3663C46.9822 4.51852 47.6546 3.00334 48.9995 1.82815C50.3444 0.65286 52.0778 0.0986287 54.1998 0.0616731C55.7614 0.0321086 59.303 0.423838 60.4685 1.15556L60.4536 6.455H59.2805C59.2357 3.92723 57.0763 1.77631 54.5358 1.77631C53.4898 1.77631 52.6679 2.0351 52.0553 2.54499C51.4502 3.05498 51.1438 3.74974 51.1438 4.6219C51.1438 5.39796 51.383 6.02621 51.8536 6.50663C52.3243 6.99445 53.4376 7.58574 55.1786 8.28789C55.5302 8.43927 55.8865 8.57977 56.247 8.70919C58.0701 9.43352 59.3104 10.0765 59.9531 10.6456C60.6179 11.2591 61.1186 11.9244 61.4399 12.6486C61.7537 13.3655 61.918 14.1934 61.918 15.1321C61.918 17.1793 61.2007 18.8128 59.7736 20.0397C58.3465 21.2667 56.4038 21.8801 53.9756 21.8801C51.4353 21.8801 48.9545 21.4071 46.6458 20.3354V14.4669L48.1703 14.4521ZM66.252 14.5704C66.3566 17.3124 68.8447 20.0768 71.6914 20.0768C72.8794 20.0768 73.8433 19.7885 74.5606 19.2119C75.2852 18.6355 75.6514 17.8816 75.6514 16.9577C75.6514 16.1741 75.4122 15.5386 74.9341 15.0359C74.4634 14.5334 73.3726 13.9273 71.6691 13.2327C69.1211 12.1905 67.3802 11.1703 66.4536 10.1875C65.5271 9.20439 65.0565 7.97008 65.0565 6.48446C65.0565 4.63668 65.7364 3.1215 67.0738 1.94631C68.4188 0.763727 70.1596 0.209393 72.2816 0.172437C73.8433 0.142873 77.3849 0.542096 78.5429 1.26632L78.5355 6.56576H77.3625C77.3175 4.038 75.1508 1.89457 72.6103 1.89457C71.5717 1.89457 70.7424 2.15326 70.1372 2.66325C69.532 3.17323 69.2257 3.868 69.2257 4.73276C69.2257 5.50883 69.4648 6.14447 69.9355 6.62489C70.4063 7.10531 71.5195 7.704 73.2605 8.39866C73.4996 8.50224 73.8583 8.65006 74.3215 8.82745C76.1521 9.54439 77.3923 10.1948 78.0349 10.7564C78.6999 11.3774 79.2004 12.0425 79.5144 12.7594C79.8357 13.4764 80.0001 14.3117 80.0001 15.2502C80.0001 17.2977 79.2829 18.9311 77.8557 20.158C76.4211 21.3777 74.4858 21.9984 72.0502 21.9984C69.5099 21.9984 67.0291 21.518 64.7278 20.4464L64.7204 14.5852L66.252 14.5704ZM12.9261 10.1505C16.266 9.6996 17.7305 7.81486 17.7305 5.26492C17.7305 3.72018 17.185 2.53021 16.0942 1.71718C15.0108 0.896768 13.4342 0.482865 11.3795 0.490256L0.179322 0.497647V1.68033C1.53171 1.68033 2.61511 1.83554 2.61511 2.40466L2.60017 19.7295C2.03979 20.269 0.747176 20.343 0 20.343V21.5551H11.6335C15.0108 21.5551 18.4627 20.3209 18.8438 16.1966C19.1799 12.5156 16.9309 10.291 12.9261 10.1505ZM7.5912 1.86501C7.60614 1.86501 7.63614 1.85761 7.67339 1.85022C8.15158 1.82066 8.51023 1.80588 8.73438 1.80588C10.2511 1.80588 11.357 2.15326 12.0594 2.84063C12.7618 3.52062 13.1204 4.62918 13.1204 6.14447C13.1204 7.52661 12.7842 8.52441 12.1192 9.12309C11.4542 9.72916 10.3633 10.0322 8.85403 10.0322H7.5912V1.86501ZM7.5912 19.8106V11.3109H9.5488C11.7231 11.3109 13.8451 12.5008 13.8451 15.6716C13.8452 19.3227 10.7891 20.4021 7.5912 19.8106ZM40.5939 2.93662C38.6214 0.97807 35.8868 0.00244141 32.3825 0.00244141C28.9231 0.00244141 26.2108 0.992852 24.2457 2.96628C22.2806 4.93971 21.2944 7.66704 21.2944 11.1409C21.2944 14.5038 22.2583 17.1352 24.186 19.0346C26.1137 20.934 28.796 21.8801 32.2405 21.8801C35.7822 21.8801 38.5541 20.9193 40.5566 19.0049C42.5589 17.0908 43.5601 14.4446 43.5601 11.0816C43.5602 7.60791 42.5665 4.88798 40.5939 2.93662ZM36.6414 17.5564C35.573 19.2342 34.1384 20.0768 32.3526 20.0768C30.6118 20.0768 29.2219 19.2342 28.1835 17.5639C27.1448 15.8936 26.6218 13.6169 26.6218 10.7565C26.6218 7.94061 27.1598 5.69371 28.2357 4.03071C29.3041 2.3677 30.7388 1.5399 32.5246 1.5399C34.2356 1.5399 35.6252 2.3751 36.6713 4.0381C37.7174 5.70839 38.2403 7.93322 38.2403 10.7048C38.2405 13.5947 37.7025 15.8786 36.6414 17.5564Z" fill="white"/>
</g>
<defs>
<clipPath id="clip0_2551_718">
<rect width="80" height="22" fill="white"/>
</clipPath>
</defs>
</svg>
